PathFileType	4	(X/Y/Z)	C:\Users\Basilio\Documents\Thesis Gigler\squatting_fais\c3dfiles\040\SLS_pre_front4\markers_experimental.trc
DataRate	CameraRate	NumFrames	NumMarkers	Units	OrigDataRate	OrigDataStartFrame	OrigNumFrames
200.000000	200.000000	4	62	mm	200.000000	514	1372
Frame#	Time	FHD			LBHD			RBHD			C7			T10			CLAV			LSHO			LUUPA			LMUPA			LDUPA			LLEP			LMEP			LRAD			LUL			LRFIN			RSHO			RUPA1			RMUPA			RDUPA			RLEP			RMEP			RRAD			RUL			RUFIN			LASI			RASI			USACR			LSACR			RSACR			LTHI1			LTHI2			LTHI3			LTHI4			LLFC			LMFC			LTIB1			LTIB2			LTIB3			LTIB4			LLMAL			LMMAL			LHEE			LMT1			LMT2			LMT5			RTHI			RTHI2			RTHI3			RTHI4			RLFC			RMFC			RTIB1			RTIB2			RTIB3			RTIB4			RLMAL			RMMAL			RHEE			RMT1			RMT2			RMT5			*61			
		X1	Y1	Z1	X2	Y2	Z2	X3	Y3	Z3	X4	Y4	Z4	X5	Y5	Z5	X6	Y6	Z6	X7	Y7	Z7	X8	Y8	Z8	X9	Y9	Z9	X10	Y10	Z10	X11	Y11	Z11	X12	Y12	Z12	X13	Y13	Z13	X14	Y14	Z14	X15	Y15	Z15	X16	Y16	Z16	X17	Y17	Z17	X18	Y18	Z18	X19	Y19	Z19	X20	Y20	Z20	X21	Y21	Z21	X22	Y22	Z22	X23	Y23	Z23	X24	Y24	Z24	X25	Y25	Z25	X26	Y26	Z26	X27	Y27	Z27	X28	Y28	Z28	X29	Y29	Z29	X30	Y30	Z30	X31	Y31	Z31	X32	Y32	Z32	X33	Y33	Z33	X34	Y34	Z34	X35	Y35	Z35	X36	Y36	Z36	X37	Y37	Z37	X38	Y38	Z38	X39	Y39	Z39	X40	Y40	Z40	X41	Y41	Z41	X42	Y42	Z42	X43	Y43	Z43	X44	Y44	Z44	X45	Y45	Z45	X46	Y46	Z46	X47	Y47	Z47	X48	Y48	Z48	X49	Y49	Z49	X50	Y50	Z50	X51	Y51	Z51	X52	Y52	Z52	X53	Y53	Z53	X54	Y54	Z54	X55	Y55	Z55	X56	Y56	Z56	X57	Y57	Z57	X58	Y58	Z58	X59	Y59	Z59	X60	Y60	Z60	X61	Y61	Z61	X62	Y62	Z62	

515	2.57	-216.3392028808594	1665.701538085938	-1147.830444335938	-337.9833679199219	1611.779907226563	-1193.487060546875	-394.608367919922	1572.463623046875	-1063.74462890625	-407.3631286621095	1458.999267578125	-1107.682006835938	-473.6316833496095	1151.530151367188	-1081.675537109375	-280.6318664550782	1388.148193359375	-1110.686157226563	-334.4833068847657	1449.60009765625	-1249.124145507813	-173.085922241211	1407.112670898438	-1317.300170898438	-146.5283355712891	1419.666137695313	-1277.263916015625	-105.1957321166992	1395.06103515625	-1314.091918945313	-48.206356048584	1368.8388671875	-1310.198364257813	-61.44989013671876	1314.779174804688	-1276.317993164063	204.061508178711	1385.717651367188	-1165.705200195313	225.1126708984376	1396.357543945313	-1239.468139648438	282.6405944824219	1415.083251953125	-1143.88427734375	-313.3835144042969	1443.514404296875	-971.7904052734377	-155.3132476806641	1372.959716796875	-905.2967529296877	-127.9682998657227	1396.278442382813	-937.6723632812502	-87.77282714843751	1356.5732421875	-915.377380371094	-28.12462043762208	1346.765014648438	-931.1567993164065	-44.18799209594727	1290.956176757813	-981.9961547851565	212.8193359375001	1388.601196289063	-1092.836547851563	238.1860351562501	1378.43359375	-1020.197204589844	300.8811950683594	1404.246459960938	-1112.4169921875	-315.0309753417969	962.5063476562502	-1176.592041015625	-312.0422668457032	982.2781372070315	-953.388854980469	-498.2706298828126	1006.137512207031	-1059.462280273438	-506.5696105957032	973.507019042969	-1084.9990234375	-506.0310363769532	977.6392822265627	-1028.61962890625	-324.5079650878907	697.9583129882814	-1228.772094726563	-253.7179565429688	651.8286743164064	-1240.959228515625	-215.2943267822266	677.5274658203126	-1249.589233398438	-242.3294372558594	595.8081054687501	-1222.221801757813	-164.9479064941407	495.0576171875001	-1212.79443359375	-161.7640838623047	495.5997619628907	-1088.30712890625	-187.5093994140625	283.3798828125001	-1137.697875976563	-265.5749816894532	269.1158447265626	-1174.011108398438	-226.9030303955079	251.0461730957032	-1159.746337890625	-252.1533355712891	181.0185241699219	-1108.524169921875	-349.7430725097657	122.9160995483399	-1110.386474609375	-307.1918640136719	140.8338928222657	-1031.575317382813	-412.2409057617189	96.69159698486331	-1049.988159179688	-199.5773162841797	57.89851760864259	-1052.233764648438	-204.9671936035157	50.73199462890626	-1098.302001953125	-261.2138061523438	35.38908386230469	-1139.389282226563	-261.3641967773438	741.3651123046876	-870.248718261719	-205.4784545898438	707.5349121093751	-882.3084716796877	-178.1978759765625	724.6450195312501	-890.6601562500002	-195.0002746582032	625.4792480468751	-889.7554321289065	-122.1620330810547	512.9948730468751	-902.7780761718752	-127.2762756347657	502.305145263672	-1037.811767578125	17.27322387695313	381.6970825195313	-934.9378051757815	0.3705697655677796	278.7690429687501	-904.7625122070315	40.21772003173829	298.7499084472657	-919.224060058594	76.02391052246095	268.5296630859376	-954.3676757812502	99.29907989501956	144.1779327392578	-930.1534423828127	97.51020812988284	164.5550384521485	-1017.675415039063	65.18203735351564	69.70983123779298	-979.9890747070315	253.5916442871094	182.7125091552735	-1015.605407714844	252.3283843994141	184.8528900146485	-976.4030761718752	238.700912475586	142.2233428955078	-921.2810058593752	nan	nan	nan	
516	2.575	-215.9743652343751	1664.25634765625	-1147.88623046875	-336.9911193847657	1610.079223632813	-1193.461059570313	-394.1703491210939	1570.910522460938	-1063.697387695313	-406.6237182617189	1457.438110351563	-1107.668212890625	-473.808563232422	1150.23583984375	-1081.654907226563	-280.3782653808594	1386.735473632813	-1110.703735351563	-334.0602416992188	1448.220947265625	-1249.096435546875	-172.7734985351563	1405.575927734375	-1317.232543945313	-146.1500549316407	1418.487548828125	-1277.3369140625	-104.7098617553711	1393.678955078125	-1314.096069335938	-47.9436264038086	1367.510375976563	-1310.233276367188	-60.95685958862306	1313.334228515625	-1276.3955078125	205.597885131836	1384.896484375	-1165.982055664063	225.4795684814454	1395.186889648438	-1239.76513671875	282.8986816406251	1414.401123046875	-1144.20947265625	-313.0082397460938	1441.973876953125	-971.733093261719	-155.1364135742188	1371.695556640625	-905.107604980469	-127.6929321289063	1394.913452148438	-937.5329589843752	-87.33219146728517	1355.269897460938	-914.9874267578127	-27.3990650177002	1346.005981445313	-931.1817016601565	-43.15088272094727	1290.83740234375	-980.8603515625002	213.4534759521485	1387.600463867188	-1092.581665039063	238.3017730712891	1377.485107421875	-1019.930114746094	301.1307067871094	1403.497802734375	-1112.571655273438	-315.2570800781251	961.042419433594	-1176.513061523438	-312.5015869140626	981.249450683594	-953.302917480469	-498.3636169433595	1005.046081542969	-1059.5224609375	-507.1879272460939	972.345642089844	-1085.07470703125	-506.2342529296876	976.4525146484377	-1028.611938476563	-323.7367858886719	696.7560424804689	-1228.59375	-252.7976989746094	650.9036254882814	-1240.6982421875	-214.6218719482422	676.9473266601564	-1248.99755859375	-241.4045562744141	594.9974975585939	-1221.99853515625	-164.3632202148438	494.8819885253907	-1212.363403320313	-160.8959503173828	495.1147460937501	-1087.944091796875	-186.5208892822266	283.2176818847657	-1137.342651367188	-264.7831726074219	268.8387756347657	-1173.76025390625	-226.0014953613282	250.7806701660157	-1159.262329101563	-251.9379272460938	180.8571166992188	-1108.12646484375	-349.3415832519532	122.7468795776367	-1110.258178710938	-307.2676391601563	140.6231079101563	-1031.156494140625	-412.3137817382814	96.63422393798831	-1049.9072265625	-199.4823913574219	57.76035690307619	-1052.317138671875	-204.8383331298829	50.78068161010744	-1098.323486328125	-261.1305236816407	35.38899230957032	-1139.4013671875	-261.5965270996094	740.6064453125001	-870.055114746094	-205.5010681152344	706.6137695312501	-882.0572509765627	-178.2591705322266	723.7505493164064	-890.8813476562502	-194.9545135498047	624.8422851562501	-889.6795043945315	-121.8732070922852	512.2011108398439	-902.6437988281252	-127.2880859375	501.256072998047	-1037.721069335938	17.89029884338379	380.9051818847657	-934.7588500976565	1.22830080986023	278.2195739746094	-904.5277099609377	40.46655654907227	297.9328002929688	-919.6004028320315	77.01688385009767	268.3630065917969	-954.3653564453127	100.1253738403321	143.6522216796875	-930.2400512695315	98.45619201660159	164.279052734375	-1017.473266601563	66.65616607666017	69.74474334716798	-979.6300048828127	254.5364685058594	182.5027313232422	-1015.3359375	253.2998809814454	185.1381225585938	-975.586608886719	239.6556854248047	142.1291961669922	-920.744323730469	nan	nan	nan	
517	2.58	-215.7377929687501	1662.96484375	-1147.9052734375	-336.8122558593751	1608.451782226563	-1193.390380859375	-393.7857666015626	1569.4638671875	-1063.57177734375	-406.2297973632814	1456.060180664063	-1107.421875	-473.8690490722657	1149.028686523438	-1081.747436523438	-280.1708374023438	1385.044555664063	-1110.660522460938	-333.8758544921876	1446.916015625	-1248.94287109375	-172.4635620117188	1404.333251953125	-1317.312377929688	-145.6722106933594	1417.2919921875	-1277.307373046875	-104.4710998535157	1392.416015625	-1314.2158203125	-47.56126022338868	1366.224853515625	-1310.243530273438	-60.73215103149415	1312.144897460938	-1276.290283203125	204.7668151855469	1383.574829101563	-1166.4912109375	225.1928863525391	1394.201904296875	-1240.182373046875	283.6482849121094	1413.16943359375	-1144.677124023438	-312.4424438476563	1440.33935546875	-971.6715087890627	-154.6993408203125	1370.439819335938	-904.8770751953127	-127.4090194702149	1393.544311523438	-937.3188476562502	-86.92417907714845	1354.08154296875	-914.7304687500002	-26.91022872924805	1343.26025390625	-930.5087890625002	-43.03251647949219	1289.115478515625	-980.571228027344	213.5310668945313	1386.395629882813	-1092.6201171875	239.1018066406251	1376.759521484375	-1019.826171875	301.0485229492188	1402.718627929688	-1112.642822265625	-315.5579833984376	959.5964355468752	-1176.395141601563	-312.6748962402344	979.673522949219	-953.3360595703127	-498.7340393066407	1003.898498535156	-1059.558715820313	-506.085906982422	970.6960449218752	-1084.69921875	-506.5697631835939	975.0730590820315	-1028.56396484375	-322.9737243652344	695.5292968750001	-1228.361450195313	-251.9439544677735	650.1343994140626	-1240.361450195313	-213.7888336181641	676.1915893554689	-1248.614501953125	-240.3815612792969	594.3675537109376	-1221.650634765625	-163.1089630126953	494.703826904297	-1211.782470703125	-159.8900146484375	495.0089111328126	-1087.380004882813	-185.3107299804688	282.8946533203126	-1136.904541015625	-263.8766784667969	268.4939270019532	-1173.456665039063	-225.1077117919922	250.3617858886719	-1158.910522460938	-251.5802459716797	180.901351928711	-1107.712768554688	-349.2592773437501	122.9010162353516	-1110.153686523438	-307.1344909667969	140.5253448486328	-1030.839721679688	-412.2789306640626	96.73649597167972	-1049.913818359375	-199.2317657470704	57.45065307617189	-1052.25390625	-204.762924194336	50.91476440429689	-1098.253051757813	-261.0698852539063	35.3935775756836	-1139.35009765625	-261.5340576171876	739.3449096679689	-869.901062011719	-205.5255432128907	705.4937744140626	-882.1616210937502	-178.5768585205078	722.4624633789064	-890.8959960937502	-195.1582946777344	624.3161621093751	-889.4241943359377	-121.4478149414063	511.2620849609376	-902.486999511719	-126.5276031494141	500.5761108398439	-1037.555297851563	18.34766387939453	380.6574401855469	-934.7607421875002	1.874743700027466	277.7556457519532	-904.359069824219	41.74926757812501	297.8033142089844	-918.8046875000002	77.96278381347658	267.9714660644532	-954.2426757812502	100.966423034668	143.3514099121094	-929.9902954101565	99.4885177612305	164.0243682861328	-1017.233154296875	67.78001403808595	68.70013427734376	-979.5687255859377	255.8927917480469	182.9667510986328	-1015.101867675781	254.8952941894532	185.0846557617188	-975.4631347656252	241.0664367675782	141.7289276123047	-920.2338867187502	nan	nan	nan	
518	2.585	-215.1270599365235	1661.2509765625	-1147.84912109375	-336.7616577148438	1607.27978515625	-1193.384521484375	-393.0778808593751	1567.744506835938	-1063.591430664063	-405.7316284179689	1454.755859375	-1107.324829101563	-473.9569091796876	1147.794677734375	-1081.6865234375	-279.7163391113282	1383.63720703125	-1110.647827148438	-333.4368286132813	1445.573852539063	-1248.887939453125	-172.3155212402344	1402.966796875	-1317.133056640625	-145.5408782958985	1416.029296875	-1277.321411132813	-104.215202331543	1390.966430664063	-1314.130004882813	-47.26258850097657	1364.878173828125	-1310.313720703125	-60.91468811035158	1311.43310546875	-1276.453369140625	204.9266662597657	1382.20263671875	-1166.916381835938	225.5463409423829	1392.968505859375	-1240.461059570313	283.7422485351563	1412.626220703125	-1145.238159179688	-311.9067687988282	1438.8369140625	-971.6295166015627	-154.4083709716797	1369.1240234375	-904.5816040039065	-127.0349807739258	1392.058471679688	-937.1614990234377	-86.26473999023439	1352.8115234375	-914.4092407226565	-26.90693664550782	1343.399780273438	-930.8569335937502	-42.39836502075196	1287.726318359375	-980.4663696289065	213.9185333251954	1385.347534179688	-1092.536865234375	239.3381652832032	1375.939697265625	-1019.818176269531	301.1343383789063	1401.907958984375	-1112.75830078125	-315.9768371582032	958.2535400390627	-1176.121459960938	-313.3639221191407	978.3159790039065	-953.1610107421877	-499.0098571777345	1002.392395019531	-1059.780517578125	-507.6780090332032	969.622741699219	-1085.02001953125	-506.9509582519532	973.8192138671877	-1028.710815429688	-322.4617919921876	694.4179077148439	-1228.212646484375	-251.2861633300782	649.4802856445314	-1239.9814453125	-213.0166320800782	675.5782470703126	-1248.159057617188	-239.3300933837891	593.5308227539064	-1221.37548828125	-160.9112091064453	493.5680236816407	-1211.316650390625	-159.3878021240235	494.3647460937501	-1086.714965820313	-184.8727111816407	282.6122741699219	-1136.186767578125	-262.9278259277344	268.2160339355469	-1173.190551757813	-224.4265136718751	250.1421813964844	-1158.234008789063	-251.0342102050782	180.3800506591797	-1107.284545898438	-349.1285400390626	122.9967651367188	-1110.063110351563	-307.1598815917969	140.5086669921875	-1030.621215820313	-412.265106201172	96.76943206787112	-1049.9130859375	-199.5241394042969	57.6447219848633	-1052.1513671875	-204.7825927734376	50.75084304809572	-1098.176513671875	-261.1373901367188	35.50123977661134	-1139.338500976563	-261.6718750000001	738.3714599609376	-869.885681152344	-205.7168426513672	704.6950683593751	-882.3064575195315	-178.3800964355469	721.9155273437501	-890.7974853515627	-194.7203521728516	623.3447875976564	-889.2802734375002	-121.2572174072266	510.549285888672	-902.2852172851565	-126.19189453125	499.7994384765626	-1037.289184570313	18.78519439697266	380.2616271972657	-934.4509277343752	3.128714561462403	277.1874084472657	-904.3187255859377	41.47164916992188	297.2684631347657	-919.0509033203127	78.85132598876955	267.4830627441407	-953.8009033203127	101.7586669921875	143.0686950683594	-929.8340454101565	100.6848297119141	163.6604461669922	-1017.0986328125	68.98724365234376	68.58467102050783	-979.4650878906252	256.7225341796876	182.894760131836	-1014.769592285156	255.5323638916016	185.0829467773438	-975.1880493164065	242.1582794189454	142.0119781494141	-920.1699829101565	nan	nan	nan	
